<mxfile host="app.diagrams.net" modified="2023-02-22T09:02:25.706Z" agent="5.0 (Windows NT 10.0; Win64; x64) AppleWebKit/537.36 (KHTML, like Gecko) Chrome/93.0.4577.63 Safari/537.36 Edg/93.0.961.47" etag="R9p-nQJVx5ItAg0gwyLl" version="20.8.22" type="github">
  <diagram name="第 1 页" id="dHEVwUIoIGB37USv3BJa">
    <mxGraphModel dx="2117" dy="580" grid="1" gridSize="10" guides="1" tooltips="1" connect="1" arrows="1" fold="1" page="1" pageScale="1" pageWidth="827" pageHeight="1169" math="0" shadow="0">
      <root>
        <mxCell id="0" />
        <mxCell id="1" parent="0" />
        <mxCell id="Cu2Xa89n5B0efeyWVin7-1" value="UndoCommandStack" style="swimlane;fontStyle=1;align=center;verticalAlign=top;childLayout=stackLayout;horizontal=1;startSize=26;horizontalStack=0;resizeParent=1;resizeParentMax=0;resizeLast=0;collapsible=1;marginBottom=0;" vertex="1" parent="1">
          <mxGeometry x="100" y="130" width="160" height="34" as="geometry" />
        </mxCell>
        <mxCell id="Cu2Xa89n5B0efeyWVin7-3" value="" style="line;strokeWidth=1;fillColor=none;align=left;verticalAlign=middle;spacingTop=-1;spacingLeft=3;spacingRight=3;rotatable=0;labelPosition=right;points=[];portConstraint=eastwest;strokeColor=inherit;" vertex="1" parent="Cu2Xa89n5B0efeyWVin7-1">
          <mxGeometry y="26" width="160" height="8" as="geometry" />
        </mxCell>
        <mxCell id="Cu2Xa89n5B0efeyWVin7-7" value="RedoCommandStack" style="swimlane;fontStyle=1;align=center;verticalAlign=top;childLayout=stackLayout;horizontal=1;startSize=26;horizontalStack=0;resizeParent=1;resizeParentMax=0;resizeLast=0;collapsible=1;marginBottom=0;" vertex="1" parent="1">
          <mxGeometry x="350" y="130" width="160" height="34" as="geometry" />
        </mxCell>
        <mxCell id="Cu2Xa89n5B0efeyWVin7-9" value="" style="line;strokeWidth=1;fillColor=none;align=left;verticalAlign=middle;spacingTop=-1;spacingLeft=3;spacingRight=3;rotatable=0;labelPosition=right;points=[];portConstraint=eastwest;strokeColor=inherit;" vertex="1" parent="Cu2Xa89n5B0efeyWVin7-7">
          <mxGeometry y="26" width="160" height="8" as="geometry" />
        </mxCell>
        <mxCell id="Cu2Xa89n5B0efeyWVin7-11" value="Command" style="swimlane;fontStyle=1;align=center;verticalAlign=top;childLayout=stackLayout;horizontal=1;startSize=26;horizontalStack=0;resizeParent=1;resizeParentMax=0;resizeLast=0;collapsible=1;marginBottom=0;" vertex="1" parent="1">
          <mxGeometry x="230" y="290" width="160" height="34" as="geometry" />
        </mxCell>
        <mxCell id="Cu2Xa89n5B0efeyWVin7-13" value="" style="line;strokeWidth=1;fillColor=none;align=left;verticalAlign=middle;spacingTop=-1;spacingLeft=3;spacingRight=3;rotatable=0;labelPosition=right;points=[];portConstraint=eastwest;strokeColor=inherit;" vertex="1" parent="Cu2Xa89n5B0efeyWVin7-11">
          <mxGeometry y="26" width="160" height="8" as="geometry" />
        </mxCell>
        <mxCell id="Cu2Xa89n5B0efeyWVin7-15" value="Commands" style="swimlane;fontStyle=1;align=center;verticalAlign=top;childLayout=stackLayout;horizontal=1;startSize=26;horizontalStack=0;resizeParent=1;resizeParentMax=0;resizeLast=0;collapsible=1;marginBottom=0;" vertex="1" parent="1">
          <mxGeometry x="-130" y="400" width="100" height="34" as="geometry" />
        </mxCell>
        <mxCell id="Cu2Xa89n5B0efeyWVin7-17" value="" style="line;strokeWidth=1;fillColor=none;align=left;verticalAlign=middle;spacingTop=-1;spacingLeft=3;spacingRight=3;rotatable=0;labelPosition=right;points=[];portConstraint=eastwest;strokeColor=inherit;" vertex="1" parent="Cu2Xa89n5B0efeyWVin7-15">
          <mxGeometry y="26" width="100" height="8" as="geometry" />
        </mxCell>
        <mxCell id="Cu2Xa89n5B0efeyWVin7-19" value="ConstrCommand" style="swimlane;fontStyle=1;align=center;verticalAlign=top;childLayout=stackLayout;horizontal=1;startSize=26;horizontalStack=0;resizeParent=1;resizeParentMax=0;resizeLast=0;collapsible=1;marginBottom=0;" vertex="1" parent="1">
          <mxGeometry y="400" width="130" height="34" as="geometry" />
        </mxCell>
        <mxCell id="Cu2Xa89n5B0efeyWVin7-21" value="" style="line;strokeWidth=1;fillColor=none;align=left;verticalAlign=middle;spacingTop=-1;spacingLeft=3;spacingRight=3;rotatable=0;labelPosition=right;points=[];portConstraint=eastwest;strokeColor=inherit;" vertex="1" parent="Cu2Xa89n5B0efeyWVin7-19">
          <mxGeometry y="26" width="130" height="8" as="geometry" />
        </mxCell>
        <mxCell id="Cu2Xa89n5B0efeyWVin7-43" value="BezierCommand" style="swimlane;fontStyle=1;align=center;verticalAlign=top;childLayout=stackLayout;horizontal=1;startSize=26;horizontalStack=0;resizeParent=1;resizeParentMax=0;resizeLast=0;collapsible=1;marginBottom=0;" vertex="1" parent="1">
          <mxGeometry x="590" y="300" width="160" height="34" as="geometry" />
        </mxCell>
        <mxCell id="Cu2Xa89n5B0efeyWVin7-45" value="" style="line;strokeWidth=1;fillColor=none;align=left;verticalAlign=middle;spacingTop=-1;spacingLeft=3;spacingRight=3;rotatable=0;labelPosition=right;points=[];portConstraint=eastwest;strokeColor=inherit;" vertex="1" parent="Cu2Xa89n5B0efeyWVin7-43">
          <mxGeometry y="26" width="160" height="8" as="geometry" />
        </mxCell>
        <mxCell id="Cu2Xa89n5B0efeyWVin7-47" value="BSplineCommand" style="swimlane;fontStyle=1;align=center;verticalAlign=top;childLayout=stackLayout;horizontal=1;startSize=26;horizontalStack=0;resizeParent=1;resizeParentMax=0;resizeLast=0;collapsible=1;marginBottom=0;" vertex="1" parent="1">
          <mxGeometry x="590" y="240" width="160" height="34" as="geometry" />
        </mxCell>
        <mxCell id="Cu2Xa89n5B0efeyWVin7-49" value="" style="line;strokeWidth=1;fillColor=none;align=left;verticalAlign=middle;spacingTop=-1;spacingLeft=3;spacingRight=3;rotatable=0;labelPosition=right;points=[];portConstraint=eastwest;strokeColor=inherit;" vertex="1" parent="Cu2Xa89n5B0efeyWVin7-47">
          <mxGeometry y="26" width="160" height="8" as="geometry" />
        </mxCell>
        <mxCell id="Cu2Xa89n5B0efeyWVin7-51" value="EdgeCommand" style="swimlane;fontStyle=1;align=center;verticalAlign=top;childLayout=stackLayout;horizontal=1;startSize=26;horizontalStack=0;resizeParent=1;resizeParentMax=0;resizeLast=0;collapsible=1;marginBottom=0;" vertex="1" parent="1">
          <mxGeometry x="300" y="400" width="125" height="34" as="geometry" />
        </mxCell>
        <mxCell id="Cu2Xa89n5B0efeyWVin7-52" value="" style="line;strokeWidth=1;fillColor=none;align=left;verticalAlign=middle;spacingTop=-1;spacingLeft=3;spacingRight=3;rotatable=0;labelPosition=right;points=[];portConstraint=eastwest;strokeColor=inherit;" vertex="1" parent="Cu2Xa89n5B0efeyWVin7-51">
          <mxGeometry y="26" width="125" height="8" as="geometry" />
        </mxCell>
        <mxCell id="Cu2Xa89n5B0efeyWVin7-53" value="PointCommand" style="swimlane;fontStyle=1;align=center;verticalAlign=top;childLayout=stackLayout;horizontal=1;startSize=26;horizontalStack=0;resizeParent=1;resizeParentMax=0;resizeLast=0;collapsible=1;marginBottom=0;" vertex="1" parent="1">
          <mxGeometry x="150" y="400" width="130" height="34" as="geometry" />
        </mxCell>
        <mxCell id="Cu2Xa89n5B0efeyWVin7-54" value="" style="line;strokeWidth=1;fillColor=none;align=left;verticalAlign=middle;spacingTop=-1;spacingLeft=3;spacingRight=3;rotatable=0;labelPosition=right;points=[];portConstraint=eastwest;strokeColor=inherit;" vertex="1" parent="Cu2Xa89n5B0efeyWVin7-53">
          <mxGeometry y="26" width="130" height="8" as="geometry" />
        </mxCell>
        <mxCell id="Cu2Xa89n5B0efeyWVin7-55" value="CircleCommand" style="swimlane;fontStyle=1;align=center;verticalAlign=top;childLayout=stackLayout;horizontal=1;startSize=26;horizontalStack=0;resizeParent=1;resizeParentMax=0;resizeLast=0;collapsible=1;marginBottom=0;" vertex="1" parent="1">
          <mxGeometry x="570" y="400" width="120" height="34" as="geometry" />
        </mxCell>
        <mxCell id="Cu2Xa89n5B0efeyWVin7-56" value="" style="line;strokeWidth=1;fillColor=none;align=left;verticalAlign=middle;spacingTop=-1;spacingLeft=3;spacingRight=3;rotatable=0;labelPosition=right;points=[];portConstraint=eastwest;strokeColor=inherit;" vertex="1" parent="Cu2Xa89n5B0efeyWVin7-55">
          <mxGeometry y="26" width="120" height="8" as="geometry" />
        </mxCell>
        <mxCell id="Cu2Xa89n5B0efeyWVin7-57" value="ArcCommand" style="swimlane;fontStyle=1;align=center;verticalAlign=top;childLayout=stackLayout;horizontal=1;startSize=26;horizontalStack=0;resizeParent=1;resizeParentMax=0;resizeLast=0;collapsible=1;marginBottom=0;" vertex="1" parent="1">
          <mxGeometry x="450" y="400" width="110" height="34" as="geometry" />
        </mxCell>
        <mxCell id="Cu2Xa89n5B0efeyWVin7-58" value="" style="line;strokeWidth=1;fillColor=none;align=left;verticalAlign=middle;spacingTop=-1;spacingLeft=3;spacingRight=3;rotatable=0;labelPosition=right;points=[];portConstraint=eastwest;strokeColor=inherit;" vertex="1" parent="Cu2Xa89n5B0efeyWVin7-57">
          <mxGeometry y="26" width="110" height="8" as="geometry" />
        </mxCell>
        <mxCell id="Cu2Xa89n5B0efeyWVin7-61" value="RectCommand" style="swimlane;fontStyle=1;align=center;verticalAlign=top;childLayout=stackLayout;horizontal=1;startSize=26;horizontalStack=0;resizeParent=1;resizeParentMax=0;resizeLast=0;collapsible=1;marginBottom=0;" vertex="1" parent="1">
          <mxGeometry x="710" y="400" width="130" height="34" as="geometry" />
        </mxCell>
        <mxCell id="Cu2Xa89n5B0efeyWVin7-62" value="" style="line;strokeWidth=1;fillColor=none;align=left;verticalAlign=middle;spacingTop=-1;spacingLeft=3;spacingRight=3;rotatable=0;labelPosition=right;points=[];portConstraint=eastwest;strokeColor=inherit;" vertex="1" parent="Cu2Xa89n5B0efeyWVin7-61">
          <mxGeometry y="26" width="130" height="8" as="geometry" />
        </mxCell>
        <mxCell id="Cu2Xa89n5B0efeyWVin7-63" value="Extends" style="endArrow=block;endSize=16;endFill=0;html=1;rounded=0;exitX=0;exitY=1;exitDx=0;exitDy=0;entryX=0.5;entryY=0;entryDx=0;entryDy=0;" edge="1" parent="1" source="Cu2Xa89n5B0efeyWVin7-11" target="Cu2Xa89n5B0efeyWVin7-15">
          <mxGeometry width="160" relative="1" as="geometry">
            <mxPoint x="300" y="332" as="sourcePoint" />
            <mxPoint x="30" y="392" as="targetPoint" />
          </mxGeometry>
        </mxCell>
        <mxCell id="Cu2Xa89n5B0efeyWVin7-64" value="Extends" style="endArrow=block;endSize=16;endFill=0;html=1;rounded=0;entryX=0.5;entryY=0;entryDx=0;entryDy=0;exitX=0.25;exitY=1;exitDx=0;exitDy=0;" edge="1" parent="1" source="Cu2Xa89n5B0efeyWVin7-11" target="Cu2Xa89n5B0efeyWVin7-19">
          <mxGeometry width="160" relative="1" as="geometry">
            <mxPoint x="310" y="330" as="sourcePoint" />
            <mxPoint x="30" y="402" as="targetPoint" />
          </mxGeometry>
        </mxCell>
        <mxCell id="Cu2Xa89n5B0efeyWVin7-65" value="Extends" style="endArrow=block;endSize=16;endFill=0;html=1;rounded=0;exitX=0.5;exitY=1;exitDx=0;exitDy=0;entryX=0.5;entryY=0;entryDx=0;entryDy=0;" edge="1" parent="1" source="Cu2Xa89n5B0efeyWVin7-11" target="Cu2Xa89n5B0efeyWVin7-53">
          <mxGeometry width="160" relative="1" as="geometry">
            <mxPoint x="250" y="344" as="sourcePoint" />
            <mxPoint x="40" y="412" as="targetPoint" />
          </mxGeometry>
        </mxCell>
        <mxCell id="Cu2Xa89n5B0efeyWVin7-66" value="Extends" style="endArrow=block;endSize=16;endFill=0;html=1;rounded=0;exitX=0.5;exitY=1;exitDx=0;exitDy=0;entryX=0.5;entryY=0;entryDx=0;entryDy=0;" edge="1" parent="1" source="Cu2Xa89n5B0efeyWVin7-11" target="Cu2Xa89n5B0efeyWVin7-51">
          <mxGeometry width="160" relative="1" as="geometry">
            <mxPoint x="460" y="420" as="sourcePoint" />
            <mxPoint x="390" y="390" as="targetPoint" />
          </mxGeometry>
        </mxCell>
        <mxCell id="Cu2Xa89n5B0efeyWVin7-67" value="Extends" style="endArrow=block;endSize=16;endFill=0;html=1;rounded=0;entryX=0.5;entryY=0;entryDx=0;entryDy=0;exitX=0.75;exitY=1;exitDx=0;exitDy=0;" edge="1" parent="1" source="Cu2Xa89n5B0efeyWVin7-11" target="Cu2Xa89n5B0efeyWVin7-57">
          <mxGeometry width="160" relative="1" as="geometry">
            <mxPoint x="330" y="330" as="sourcePoint" />
            <mxPoint x="490" y="390" as="targetPoint" />
          </mxGeometry>
        </mxCell>
        <mxCell id="Cu2Xa89n5B0efeyWVin7-68" value="Extends" style="endArrow=block;endSize=16;endFill=0;html=1;rounded=0;entryX=0.57;entryY=0.012;entryDx=0;entryDy=0;entryPerimeter=0;exitX=0.776;exitY=0.85;exitDx=0;exitDy=0;exitPerimeter=0;" edge="1" parent="1" source="Cu2Xa89n5B0efeyWVin7-13" target="Cu2Xa89n5B0efeyWVin7-55">
          <mxGeometry width="160" relative="1" as="geometry">
            <mxPoint x="370" y="330" as="sourcePoint" />
            <mxPoint x="70" y="442" as="targetPoint" />
          </mxGeometry>
        </mxCell>
        <mxCell id="Cu2Xa89n5B0efeyWVin7-70" value="Extends" style="endArrow=block;endSize=16;endFill=0;html=1;rounded=0;exitX=1;exitY=0.75;exitDx=0;exitDy=0;entryX=0;entryY=0.5;entryDx=0;entryDy=0;" edge="1" parent="1" source="Cu2Xa89n5B0efeyWVin7-11" target="Cu2Xa89n5B0efeyWVin7-43">
          <mxGeometry width="160" relative="1" as="geometry">
            <mxPoint x="300" y="394" as="sourcePoint" />
            <mxPoint x="90" y="462" as="targetPoint" />
          </mxGeometry>
        </mxCell>
        <mxCell id="Cu2Xa89n5B0efeyWVin7-71" value="Extends" style="endArrow=block;endSize=16;endFill=0;html=1;rounded=0;exitX=1;exitY=0.25;exitDx=0;exitDy=0;entryX=0;entryY=0.25;entryDx=0;entryDy=0;" edge="1" parent="1" source="Cu2Xa89n5B0efeyWVin7-11" target="Cu2Xa89n5B0efeyWVin7-47">
          <mxGeometry width="160" relative="1" as="geometry">
            <mxPoint x="310" y="404" as="sourcePoint" />
            <mxPoint x="100" y="472" as="targetPoint" />
          </mxGeometry>
        </mxCell>
        <mxCell id="Cu2Xa89n5B0efeyWVin7-73" value="Use" style="endArrow=open;endSize=12;dashed=1;html=1;rounded=0;entryX=0.456;entryY=-0.024;entryDx=0;entryDy=0;entryPerimeter=0;exitX=0.5;exitY=1;exitDx=0;exitDy=0;" edge="1" parent="1" source="Cu2Xa89n5B0efeyWVin7-1" target="Cu2Xa89n5B0efeyWVin7-11">
          <mxGeometry width="160" relative="1" as="geometry">
            <mxPoint x="160" y="180" as="sourcePoint" />
            <mxPoint x="320" y="180" as="targetPoint" />
          </mxGeometry>
        </mxCell>
        <mxCell id="Cu2Xa89n5B0efeyWVin7-74" value="Use" style="endArrow=open;endSize=12;dashed=1;html=1;rounded=0;exitX=0.5;exitY=1;exitDx=0;exitDy=0;entryX=0.546;entryY=-0.024;entryDx=0;entryDy=0;entryPerimeter=0;" edge="1" parent="1" source="Cu2Xa89n5B0efeyWVin7-7" target="Cu2Xa89n5B0efeyWVin7-11">
          <mxGeometry width="160" relative="1" as="geometry">
            <mxPoint x="450" y="300" as="sourcePoint" />
            <mxPoint x="610" y="300" as="targetPoint" />
          </mxGeometry>
        </mxCell>
        <mxCell id="Cu2Xa89n5B0efeyWVin7-77" value="Extends" style="endArrow=block;endSize=16;endFill=0;html=1;rounded=0;entryX=0.5;entryY=0;entryDx=0;entryDy=0;exitX=1;exitY=1;exitDx=0;exitDy=0;" edge="1" parent="1" source="Cu2Xa89n5B0efeyWVin7-11" target="Cu2Xa89n5B0efeyWVin7-61">
          <mxGeometry width="160" relative="1" as="geometry">
            <mxPoint x="450" y="300" as="sourcePoint" />
            <mxPoint x="610" y="300" as="targetPoint" />
          </mxGeometry>
        </mxCell>
        <mxCell id="Cu2Xa89n5B0efeyWVin7-78" value="Use" style="endArrow=open;endSize=12;dashed=1;html=1;rounded=0;exitX=0.082;exitY=-0.082;exitDx=0;exitDy=0;exitPerimeter=0;entryX=0;entryY=0.5;entryDx=0;entryDy=0;" edge="1" parent="1" source="Cu2Xa89n5B0efeyWVin7-15" target="Cu2Xa89n5B0efeyWVin7-11">
          <mxGeometry width="160" relative="1" as="geometry">
            <mxPoint x="-70" y="316.5" as="sourcePoint" />
            <mxPoint x="90" y="316.5" as="targetPoint" />
          </mxGeometry>
        </mxCell>
      </root>
    </mxGraphModel>
  </diagram>
</mxfile>
